<mxfile host="app.diagrams.net" modified="2020-05-16T09:22:45.758Z" agent="5.0 (Windows)" etag="ttOnPj9MN2DL7emcOGrF" version="13.1.2" type="github">
  <diagram id="r6evYC1fnffrFF_XjjPb" name="Page-1">
    <mxGraphModel dx="1254" dy="801" grid="1" gridSize="10" guides="1" tooltips="1" connect="1" arrows="1" fold="1" page="1" pageScale="1" pageWidth="850" pageHeight="1100" math="0" shadow="0">
      <root>
        <mxCell id="0" />
        <mxCell id="1" parent="0" />
        <mxCell id="f8aXV5ckbH8cKtRE4Cgy-26" value="" style="group" parent="1" vertex="1" connectable="0">
          <mxGeometry x="160" y="280" width="80" height="80" as="geometry" />
        </mxCell>
        <mxCell id="f8aXV5ckbH8cKtRE4Cgy-27" value="" style="rounded=0;whiteSpace=wrap;html=1;strokeColor=#000000;" parent="f8aXV5ckbH8cKtRE4Cgy-26" vertex="1">
          <mxGeometry width="80" height="80" as="geometry" />
        </mxCell>
        <mxCell id="f8aXV5ckbH8cKtRE4Cgy-28" value="" style="endArrow=none;html=1;exitX=0.002;exitY=0.674;exitDx=0;exitDy=0;exitPerimeter=0;entryX=1;entryY=0.674;entryDx=0;entryDy=0;entryPerimeter=0;" parent="f8aXV5ckbH8cKtRE4Cgy-26" source="f8aXV5ckbH8cKtRE4Cgy-27" target="f8aXV5ckbH8cKtRE4Cgy-27" edge="1">
          <mxGeometry width="50" height="50" relative="1" as="geometry">
            <mxPoint x="70" y="150" as="sourcePoint" />
            <mxPoint x="120" y="100" as="targetPoint" />
          </mxGeometry>
        </mxCell>
        <mxCell id="f8aXV5ckbH8cKtRE4Cgy-29" value="&lt;font face=&quot;Lucida Console&quot;&gt;__proto__&lt;/font&gt;" style="text;html=1;strokeColor=none;fillColor=none;align=center;verticalAlign=middle;whiteSpace=wrap;rounded=0;" parent="f8aXV5ckbH8cKtRE4Cgy-26" vertex="1">
          <mxGeometry x="20" y="55" width="40" height="20" as="geometry" />
        </mxCell>
        <mxCell id="f8aXV5ckbH8cKtRE4Cgy-30" value="" style="rounded=0;whiteSpace=wrap;html=1;strokeColor=#000000;" parent="f8aXV5ckbH8cKtRE4Cgy-26" vertex="1">
          <mxGeometry width="80" height="80" as="geometry" />
        </mxCell>
        <mxCell id="f8aXV5ckbH8cKtRE4Cgy-31" value="" style="endArrow=none;html=1;exitX=0.002;exitY=0.674;exitDx=0;exitDy=0;exitPerimeter=0;entryX=1;entryY=0.674;entryDx=0;entryDy=0;entryPerimeter=0;" parent="f8aXV5ckbH8cKtRE4Cgy-26" source="f8aXV5ckbH8cKtRE4Cgy-30" target="f8aXV5ckbH8cKtRE4Cgy-30" edge="1">
          <mxGeometry width="50" height="50" relative="1" as="geometry">
            <mxPoint x="70" y="150" as="sourcePoint" />
            <mxPoint x="120" y="100" as="targetPoint" />
          </mxGeometry>
        </mxCell>
        <mxCell id="f8aXV5ckbH8cKtRE4Cgy-32" value="&lt;font face=&quot;Lucida Console&quot;&gt;__proto__&lt;/font&gt;" style="text;html=1;strokeColor=none;fillColor=none;align=center;verticalAlign=middle;whiteSpace=wrap;rounded=0;" parent="f8aXV5ckbH8cKtRE4Cgy-26" vertex="1">
          <mxGeometry x="20" y="56" width="40" height="20" as="geometry" />
        </mxCell>
        <mxCell id="f8aXV5ckbH8cKtRE4Cgy-93" value="" style="group" parent="1" vertex="1" connectable="0">
          <mxGeometry x="400" y="240" width="80" height="80" as="geometry" />
        </mxCell>
        <mxCell id="f8aXV5ckbH8cKtRE4Cgy-94" value="" style="rounded=0;whiteSpace=wrap;html=1;strokeColor=#000000;" parent="f8aXV5ckbH8cKtRE4Cgy-93" vertex="1">
          <mxGeometry width="80" height="80" as="geometry" />
        </mxCell>
        <mxCell id="f8aXV5ckbH8cKtRE4Cgy-95" value="" style="endArrow=none;html=1;exitX=0.002;exitY=0.674;exitDx=0;exitDy=0;exitPerimeter=0;entryX=1;entryY=0.674;entryDx=0;entryDy=0;entryPerimeter=0;" parent="f8aXV5ckbH8cKtRE4Cgy-93" source="f8aXV5ckbH8cKtRE4Cgy-94" target="f8aXV5ckbH8cKtRE4Cgy-94" edge="1">
          <mxGeometry width="50" height="50" relative="1" as="geometry">
            <mxPoint x="70" y="150" as="sourcePoint" />
            <mxPoint x="120" y="100" as="targetPoint" />
          </mxGeometry>
        </mxCell>
        <mxCell id="f8aXV5ckbH8cKtRE4Cgy-96" value="&lt;font face=&quot;Lucida Console&quot;&gt;__proto__&lt;/font&gt;" style="text;html=1;strokeColor=none;fillColor=none;align=center;verticalAlign=middle;whiteSpace=wrap;rounded=0;" parent="f8aXV5ckbH8cKtRE4Cgy-93" vertex="1">
          <mxGeometry x="20" y="55" width="40" height="20" as="geometry" />
        </mxCell>
        <mxCell id="f8aXV5ckbH8cKtRE4Cgy-97" value="" style="rounded=0;whiteSpace=wrap;html=1;strokeColor=#000000;" parent="f8aXV5ckbH8cKtRE4Cgy-93" vertex="1">
          <mxGeometry width="80" height="80" as="geometry" />
        </mxCell>
        <mxCell id="f8aXV5ckbH8cKtRE4Cgy-98" value="" style="endArrow=none;html=1;exitX=0.002;exitY=0.674;exitDx=0;exitDy=0;exitPerimeter=0;entryX=1;entryY=0.674;entryDx=0;entryDy=0;entryPerimeter=0;" parent="f8aXV5ckbH8cKtRE4Cgy-93" source="f8aXV5ckbH8cKtRE4Cgy-97" target="f8aXV5ckbH8cKtRE4Cgy-97" edge="1">
          <mxGeometry width="50" height="50" relative="1" as="geometry">
            <mxPoint x="70" y="150" as="sourcePoint" />
            <mxPoint x="120" y="100" as="targetPoint" />
          </mxGeometry>
        </mxCell>
        <mxCell id="f8aXV5ckbH8cKtRE4Cgy-99" value="&lt;font face=&quot;Lucida Console&quot;&gt;__proto__&lt;/font&gt;" style="text;html=1;strokeColor=none;fillColor=none;align=center;verticalAlign=middle;whiteSpace=wrap;rounded=0;" parent="f8aXV5ckbH8cKtRE4Cgy-93" vertex="1">
          <mxGeometry x="20" y="55" width="40" height="20" as="geometry" />
        </mxCell>
        <mxCell id="f8aXV5ckbH8cKtRE4Cgy-100" value="" style="group" parent="1" vertex="1" connectable="0">
          <mxGeometry x="400" y="240" width="80" height="80" as="geometry" />
        </mxCell>
        <mxCell id="f8aXV5ckbH8cKtRE4Cgy-101" value="" style="rounded=0;whiteSpace=wrap;html=1;strokeColor=#000000;" parent="f8aXV5ckbH8cKtRE4Cgy-100" vertex="1">
          <mxGeometry width="80" height="80" as="geometry" />
        </mxCell>
        <mxCell id="f8aXV5ckbH8cKtRE4Cgy-102" value="" style="endArrow=none;html=1;exitX=0.002;exitY=0.674;exitDx=0;exitDy=0;exitPerimeter=0;entryX=1;entryY=0.674;entryDx=0;entryDy=0;entryPerimeter=0;" parent="f8aXV5ckbH8cKtRE4Cgy-100" source="f8aXV5ckbH8cKtRE4Cgy-101" target="f8aXV5ckbH8cKtRE4Cgy-101" edge="1">
          <mxGeometry width="50" height="50" relative="1" as="geometry">
            <mxPoint x="70" y="150" as="sourcePoint" />
            <mxPoint x="120" y="100" as="targetPoint" />
          </mxGeometry>
        </mxCell>
        <mxCell id="f8aXV5ckbH8cKtRE4Cgy-103" value="&lt;font face=&quot;Lucida Console&quot;&gt;__proto__&lt;/font&gt;" style="text;html=1;strokeColor=none;fillColor=none;align=center;verticalAlign=middle;whiteSpace=wrap;rounded=0;" parent="f8aXV5ckbH8cKtRE4Cgy-100" vertex="1">
          <mxGeometry x="20" y="55" width="40" height="20" as="geometry" />
        </mxCell>
        <mxCell id="f8aXV5ckbH8cKtRE4Cgy-104" value="" style="rounded=0;whiteSpace=wrap;html=1;strokeColor=#000000;" parent="f8aXV5ckbH8cKtRE4Cgy-100" vertex="1">
          <mxGeometry width="80" height="80" as="geometry" />
        </mxCell>
        <mxCell id="f8aXV5ckbH8cKtRE4Cgy-105" value="" style="endArrow=none;html=1;exitX=0.002;exitY=0.674;exitDx=0;exitDy=0;exitPerimeter=0;entryX=1;entryY=0.674;entryDx=0;entryDy=0;entryPerimeter=0;" parent="f8aXV5ckbH8cKtRE4Cgy-100" source="f8aXV5ckbH8cKtRE4Cgy-104" target="f8aXV5ckbH8cKtRE4Cgy-104" edge="1">
          <mxGeometry width="50" height="50" relative="1" as="geometry">
            <mxPoint x="70" y="150" as="sourcePoint" />
            <mxPoint x="120" y="100" as="targetPoint" />
          </mxGeometry>
        </mxCell>
        <mxCell id="f8aXV5ckbH8cKtRE4Cgy-106" value="&lt;font face=&quot;Lucida Console&quot;&gt;prototype&lt;/font&gt;" style="text;html=1;strokeColor=none;fillColor=none;align=center;verticalAlign=middle;whiteSpace=wrap;rounded=0;" parent="f8aXV5ckbH8cKtRE4Cgy-100" vertex="1">
          <mxGeometry x="20" y="56" width="40" height="20" as="geometry" />
        </mxCell>
        <mxCell id="f8aXV5ckbH8cKtRE4Cgy-9" value="" style="rounded=0;whiteSpace=wrap;html=1;strokeColor=#000000;" parent="1" vertex="1">
          <mxGeometry x="400" y="360" width="80" height="80" as="geometry" />
        </mxCell>
        <mxCell id="f8aXV5ckbH8cKtRE4Cgy-10" value="" style="endArrow=none;html=1;exitX=0.002;exitY=0.674;exitDx=0;exitDy=0;exitPerimeter=0;entryX=1;entryY=0.674;entryDx=0;entryDy=0;entryPerimeter=0;" parent="1" source="f8aXV5ckbH8cKtRE4Cgy-9" target="f8aXV5ckbH8cKtRE4Cgy-9" edge="1">
          <mxGeometry width="50" height="50" relative="1" as="geometry">
            <mxPoint x="470" y="510" as="sourcePoint" />
            <mxPoint x="520" y="460" as="targetPoint" />
          </mxGeometry>
        </mxCell>
        <mxCell id="f8aXV5ckbH8cKtRE4Cgy-11" value="&lt;font face=&quot;Lucida Console&quot;&gt;__proto__&lt;/font&gt;" style="text;html=1;strokeColor=none;fillColor=none;align=center;verticalAlign=middle;whiteSpace=wrap;rounded=0;" parent="1" vertex="1">
          <mxGeometry x="420" y="415" width="40" height="20" as="geometry" />
        </mxCell>
        <mxCell id="f8aXV5ckbH8cKtRE4Cgy-12" value="" style="rounded=0;whiteSpace=wrap;html=1;strokeColor=#000000;" parent="1" vertex="1">
          <mxGeometry x="400" y="360" width="80" height="80" as="geometry" />
        </mxCell>
        <mxCell id="f8aXV5ckbH8cKtRE4Cgy-13" value="" style="endArrow=none;html=1;exitX=0.002;exitY=0.674;exitDx=0;exitDy=0;exitPerimeter=0;entryX=1;entryY=0.674;entryDx=0;entryDy=0;entryPerimeter=0;" parent="1" source="f8aXV5ckbH8cKtRE4Cgy-12" target="f8aXV5ckbH8cKtRE4Cgy-12" edge="1">
          <mxGeometry width="50" height="50" relative="1" as="geometry">
            <mxPoint x="470" y="510" as="sourcePoint" />
            <mxPoint x="520" y="460" as="targetPoint" />
          </mxGeometry>
        </mxCell>
        <mxCell id="f8aXV5ckbH8cKtRE4Cgy-14" value="&lt;font face=&quot;Lucida Console&quot;&gt;__proto__&lt;/font&gt;" style="text;html=1;strokeColor=none;fillColor=none;align=center;verticalAlign=middle;whiteSpace=wrap;rounded=0;" parent="1" vertex="1">
          <mxGeometry x="420" y="415" width="40" height="20" as="geometry" />
        </mxCell>
        <mxCell id="f8aXV5ckbH8cKtRE4Cgy-15" value="" style="rounded=0;whiteSpace=wrap;html=1;strokeColor=#000000;" parent="1" vertex="1">
          <mxGeometry x="400" y="440" width="80" height="26" as="geometry" />
        </mxCell>
        <mxCell id="f8aXV5ckbH8cKtRE4Cgy-17" value="" style="rounded=0;whiteSpace=wrap;html=1;strokeColor=#000000;" parent="1" vertex="1">
          <mxGeometry x="400" y="360" width="80" height="80" as="geometry" />
        </mxCell>
        <mxCell id="f8aXV5ckbH8cKtRE4Cgy-18" value="" style="endArrow=none;html=1;exitX=0.002;exitY=0.674;exitDx=0;exitDy=0;exitPerimeter=0;entryX=1;entryY=0.674;entryDx=0;entryDy=0;entryPerimeter=0;" parent="1" source="f8aXV5ckbH8cKtRE4Cgy-17" target="f8aXV5ckbH8cKtRE4Cgy-17" edge="1">
          <mxGeometry width="50" height="50" relative="1" as="geometry">
            <mxPoint x="470" y="510" as="sourcePoint" />
            <mxPoint x="520" y="460" as="targetPoint" />
          </mxGeometry>
        </mxCell>
        <mxCell id="f8aXV5ckbH8cKtRE4Cgy-19" value="&lt;font face=&quot;Lucida Console&quot;&gt;__proto__&lt;/font&gt;" style="text;html=1;strokeColor=none;fillColor=none;align=center;verticalAlign=middle;whiteSpace=wrap;rounded=0;" parent="1" vertex="1">
          <mxGeometry x="420" y="415" width="40" height="20" as="geometry" />
        </mxCell>
        <mxCell id="f8aXV5ckbH8cKtRE4Cgy-20" value="" style="rounded=0;whiteSpace=wrap;html=1;strokeColor=#000000;" parent="1" vertex="1">
          <mxGeometry x="400" y="360" width="80" height="80" as="geometry" />
        </mxCell>
        <mxCell id="f8aXV5ckbH8cKtRE4Cgy-21" value="" style="endArrow=none;html=1;exitX=0.002;exitY=0.674;exitDx=0;exitDy=0;exitPerimeter=0;entryX=1;entryY=0.674;entryDx=0;entryDy=0;entryPerimeter=0;" parent="1" source="f8aXV5ckbH8cKtRE4Cgy-20" target="f8aXV5ckbH8cKtRE4Cgy-20" edge="1">
          <mxGeometry width="50" height="50" relative="1" as="geometry">
            <mxPoint x="470" y="510" as="sourcePoint" />
            <mxPoint x="520" y="460" as="targetPoint" />
          </mxGeometry>
        </mxCell>
        <mxCell id="f8aXV5ckbH8cKtRE4Cgy-22" value="constructor" style="text;html=1;strokeColor=none;fillColor=none;align=center;verticalAlign=middle;whiteSpace=wrap;rounded=0;" parent="1" vertex="1">
          <mxGeometry x="420" y="415" width="40" height="20" as="geometry" />
        </mxCell>
        <mxCell id="f8aXV5ckbH8cKtRE4Cgy-23" value="" style="rounded=0;whiteSpace=wrap;html=1;strokeColor=#000000;" parent="1" vertex="1">
          <mxGeometry x="400" y="440" width="80" height="26" as="geometry" />
        </mxCell>
        <mxCell id="f8aXV5ckbH8cKtRE4Cgy-33" value="&lt;!--StartFragment--&gt;&lt;font face=&quot;Lucida Console&quot;&gt;__proto__&lt;/font&gt;&lt;!--EndFragment--&gt;" style="text;whiteSpace=wrap;html=1;" parent="1" vertex="1">
          <mxGeometry x="405" y="438" width="90" height="30" as="geometry" />
        </mxCell>
        <mxCell id="f8aXV5ckbH8cKtRE4Cgy-38" value="" style="rounded=0;whiteSpace=wrap;html=1;strokeColor=#000000;" parent="1" vertex="1">
          <mxGeometry x="400" y="360" width="80" height="80" as="geometry" />
        </mxCell>
        <mxCell id="f8aXV5ckbH8cKtRE4Cgy-39" value="" style="endArrow=none;html=1;exitX=0.002;exitY=0.674;exitDx=0;exitDy=0;exitPerimeter=0;entryX=1;entryY=0.674;entryDx=0;entryDy=0;entryPerimeter=0;" parent="1" source="f8aXV5ckbH8cKtRE4Cgy-38" target="f8aXV5ckbH8cKtRE4Cgy-38" edge="1">
          <mxGeometry width="50" height="50" relative="1" as="geometry">
            <mxPoint x="470" y="510" as="sourcePoint" />
            <mxPoint x="520" y="460" as="targetPoint" />
          </mxGeometry>
        </mxCell>
        <mxCell id="f8aXV5ckbH8cKtRE4Cgy-40" value="&lt;font face=&quot;Lucida Console&quot;&gt;__proto__&lt;/font&gt;" style="text;html=1;strokeColor=none;fillColor=none;align=center;verticalAlign=middle;whiteSpace=wrap;rounded=0;" parent="1" vertex="1">
          <mxGeometry x="420" y="415" width="40" height="20" as="geometry" />
        </mxCell>
        <mxCell id="f8aXV5ckbH8cKtRE4Cgy-41" value="" style="rounded=0;whiteSpace=wrap;html=1;strokeColor=#000000;" parent="1" vertex="1">
          <mxGeometry x="400" y="360" width="80" height="80" as="geometry" />
        </mxCell>
        <mxCell id="f8aXV5ckbH8cKtRE4Cgy-42" value="" style="endArrow=none;html=1;exitX=0.002;exitY=0.674;exitDx=0;exitDy=0;exitPerimeter=0;entryX=1;entryY=0.674;entryDx=0;entryDy=0;entryPerimeter=0;" parent="1" source="f8aXV5ckbH8cKtRE4Cgy-41" target="f8aXV5ckbH8cKtRE4Cgy-41" edge="1">
          <mxGeometry width="50" height="50" relative="1" as="geometry">
            <mxPoint x="470" y="510" as="sourcePoint" />
            <mxPoint x="520" y="460" as="targetPoint" />
          </mxGeometry>
        </mxCell>
        <mxCell id="f8aXV5ckbH8cKtRE4Cgy-43" value="&lt;font face=&quot;Lucida Console&quot;&gt;__proto__&lt;/font&gt;" style="text;html=1;strokeColor=none;fillColor=none;align=center;verticalAlign=middle;whiteSpace=wrap;rounded=0;" parent="1" vertex="1">
          <mxGeometry x="420" y="415" width="40" height="20" as="geometry" />
        </mxCell>
        <mxCell id="f8aXV5ckbH8cKtRE4Cgy-44" value="" style="rounded=0;whiteSpace=wrap;html=1;strokeColor=#000000;" parent="1" vertex="1">
          <mxGeometry x="400" y="440" width="80" height="26" as="geometry" />
        </mxCell>
        <mxCell id="f8aXV5ckbH8cKtRE4Cgy-46" value="" style="rounded=0;whiteSpace=wrap;html=1;strokeColor=#000000;" parent="1" vertex="1">
          <mxGeometry x="400" y="360" width="80" height="80" as="geometry" />
        </mxCell>
        <mxCell id="f8aXV5ckbH8cKtRE4Cgy-47" value="" style="endArrow=none;html=1;exitX=0.002;exitY=0.674;exitDx=0;exitDy=0;exitPerimeter=0;entryX=1;entryY=0.674;entryDx=0;entryDy=0;entryPerimeter=0;" parent="1" source="f8aXV5ckbH8cKtRE4Cgy-46" target="f8aXV5ckbH8cKtRE4Cgy-46" edge="1">
          <mxGeometry width="50" height="50" relative="1" as="geometry">
            <mxPoint x="470" y="510" as="sourcePoint" />
            <mxPoint x="520" y="460" as="targetPoint" />
          </mxGeometry>
        </mxCell>
        <mxCell id="f8aXV5ckbH8cKtRE4Cgy-48" value="&lt;font face=&quot;Lucida Console&quot;&gt;__proto__&lt;/font&gt;" style="text;html=1;strokeColor=none;fillColor=none;align=center;verticalAlign=middle;whiteSpace=wrap;rounded=0;" parent="1" vertex="1">
          <mxGeometry x="420" y="415" width="40" height="20" as="geometry" />
        </mxCell>
        <mxCell id="f8aXV5ckbH8cKtRE4Cgy-49" value="" style="rounded=0;whiteSpace=wrap;html=1;strokeColor=#000000;" parent="1" vertex="1">
          <mxGeometry x="400" y="360" width="80" height="80" as="geometry" />
        </mxCell>
        <mxCell id="f8aXV5ckbH8cKtRE4Cgy-50" value="" style="endArrow=none;html=1;exitX=0.002;exitY=0.674;exitDx=0;exitDy=0;exitPerimeter=0;entryX=1;entryY=0.674;entryDx=0;entryDy=0;entryPerimeter=0;" parent="1" source="f8aXV5ckbH8cKtRE4Cgy-49" target="f8aXV5ckbH8cKtRE4Cgy-49" edge="1">
          <mxGeometry width="50" height="50" relative="1" as="geometry">
            <mxPoint x="470" y="510" as="sourcePoint" />
            <mxPoint x="520" y="460" as="targetPoint" />
          </mxGeometry>
        </mxCell>
        <mxCell id="f8aXV5ckbH8cKtRE4Cgy-132" style="edgeStyle=orthogonalEdgeStyle;orthogonalLoop=1;jettySize=auto;html=1;exitX=0.5;exitY=0;exitDx=0;exitDy=0;entryX=1;entryY=0.5;entryDx=0;entryDy=0;startArrow=none;startFill=0;endArrow=block;endFill=1;strokeColor=none;rounded=1;" parent="1" source="f8aXV5ckbH8cKtRE4Cgy-51" target="f8aXV5ckbH8cKtRE4Cgy-104" edge="1">
          <mxGeometry relative="1" as="geometry" />
        </mxCell>
        <mxCell id="f8aXV5ckbH8cKtRE4Cgy-145" style="edgeStyle=orthogonalEdgeStyle;orthogonalLoop=1;jettySize=auto;html=1;startArrow=none;startFill=0;endArrow=block;endFill=1;strokeColor=#000000;entryX=1;entryY=0.5;entryDx=0;entryDy=0;curved=1;" parent="1" edge="1">
          <mxGeometry relative="1" as="geometry">
            <mxPoint x="478" y="280" as="targetPoint" />
            <mxPoint x="478" y="428" as="sourcePoint" />
            <Array as="points">
              <mxPoint x="498" y="428" />
              <mxPoint x="498" y="280" />
            </Array>
          </mxGeometry>
        </mxCell>
        <mxCell id="f8aXV5ckbH8cKtRE4Cgy-51" value="&lt;font face=&quot;Lucida Console&quot;&gt;constructor&lt;/font&gt;" style="text;html=1;strokeColor=none;fillColor=none;align=center;verticalAlign=middle;whiteSpace=wrap;rounded=0;" parent="1" vertex="1">
          <mxGeometry x="421" y="416" width="40" height="20" as="geometry" />
        </mxCell>
        <mxCell id="f8aXV5ckbH8cKtRE4Cgy-52" value="" style="rounded=0;whiteSpace=wrap;html=1;strokeColor=#000000;" parent="1" vertex="1">
          <mxGeometry x="400" y="440" width="80" height="26" as="geometry" />
        </mxCell>
        <mxCell id="f8aXV5ckbH8cKtRE4Cgy-53" value="&lt;!--StartFragment--&gt;&lt;font face=&quot;Lucida Console&quot;&gt;__proto__&lt;/font&gt;&lt;!--EndFragment--&gt;" style="text;whiteSpace=wrap;html=1;" parent="1" vertex="1">
          <mxGeometry x="405" y="438" width="75" height="22" as="geometry" />
        </mxCell>
        <mxCell id="f8aXV5ckbH8cKtRE4Cgy-107" value="" style="group" parent="1" vertex="1" connectable="0">
          <mxGeometry x="520" y="280" width="80" height="80" as="geometry" />
        </mxCell>
        <mxCell id="f8aXV5ckbH8cKtRE4Cgy-108" value="" style="rounded=0;whiteSpace=wrap;html=1;strokeColor=#000000;" parent="f8aXV5ckbH8cKtRE4Cgy-107" vertex="1">
          <mxGeometry width="80" height="80" as="geometry" />
        </mxCell>
        <mxCell id="f8aXV5ckbH8cKtRE4Cgy-109" value="" style="endArrow=none;html=1;exitX=0.002;exitY=0.674;exitDx=0;exitDy=0;exitPerimeter=0;entryX=1;entryY=0.674;entryDx=0;entryDy=0;entryPerimeter=0;" parent="f8aXV5ckbH8cKtRE4Cgy-107" source="f8aXV5ckbH8cKtRE4Cgy-108" target="f8aXV5ckbH8cKtRE4Cgy-108" edge="1">
          <mxGeometry width="50" height="50" relative="1" as="geometry">
            <mxPoint x="70" y="150" as="sourcePoint" />
            <mxPoint x="120" y="100" as="targetPoint" />
          </mxGeometry>
        </mxCell>
        <mxCell id="f8aXV5ckbH8cKtRE4Cgy-110" value="&lt;font face=&quot;Lucida Console&quot;&gt;__proto__&lt;/font&gt;" style="text;html=1;strokeColor=none;fillColor=none;align=center;verticalAlign=middle;whiteSpace=wrap;rounded=0;" parent="f8aXV5ckbH8cKtRE4Cgy-107" vertex="1">
          <mxGeometry x="20" y="55" width="40" height="20" as="geometry" />
        </mxCell>
        <mxCell id="f8aXV5ckbH8cKtRE4Cgy-111" value="" style="rounded=0;whiteSpace=wrap;html=1;strokeColor=#000000;" parent="f8aXV5ckbH8cKtRE4Cgy-107" vertex="1">
          <mxGeometry width="80" height="80" as="geometry" />
        </mxCell>
        <mxCell id="f8aXV5ckbH8cKtRE4Cgy-112" value="" style="endArrow=none;html=1;exitX=0.002;exitY=0.674;exitDx=0;exitDy=0;exitPerimeter=0;entryX=1;entryY=0.674;entryDx=0;entryDy=0;entryPerimeter=0;" parent="f8aXV5ckbH8cKtRE4Cgy-107" source="f8aXV5ckbH8cKtRE4Cgy-111" target="f8aXV5ckbH8cKtRE4Cgy-111" edge="1">
          <mxGeometry width="50" height="50" relative="1" as="geometry">
            <mxPoint x="70" y="150" as="sourcePoint" />
            <mxPoint x="120" y="100" as="targetPoint" />
          </mxGeometry>
        </mxCell>
        <mxCell id="f8aXV5ckbH8cKtRE4Cgy-113" value="&lt;font face=&quot;Lucida Console&quot;&gt;__proto__&lt;/font&gt;" style="text;html=1;strokeColor=none;fillColor=none;align=center;verticalAlign=middle;whiteSpace=wrap;rounded=0;" parent="f8aXV5ckbH8cKtRE4Cgy-107" vertex="1">
          <mxGeometry x="20" y="55" width="40" height="20" as="geometry" />
        </mxCell>
        <mxCell id="f8aXV5ckbH8cKtRE4Cgy-114" value="" style="group" parent="1" vertex="1" connectable="0">
          <mxGeometry x="520" y="280" width="80" height="80" as="geometry" />
        </mxCell>
        <mxCell id="f8aXV5ckbH8cKtRE4Cgy-115" value="" style="rounded=0;whiteSpace=wrap;html=1;strokeColor=#000000;" parent="f8aXV5ckbH8cKtRE4Cgy-114" vertex="1">
          <mxGeometry width="80" height="80" as="geometry" />
        </mxCell>
        <mxCell id="f8aXV5ckbH8cKtRE4Cgy-116" value="" style="endArrow=none;html=1;exitX=0.002;exitY=0.674;exitDx=0;exitDy=0;exitPerimeter=0;entryX=1;entryY=0.674;entryDx=0;entryDy=0;entryPerimeter=0;" parent="f8aXV5ckbH8cKtRE4Cgy-114" source="f8aXV5ckbH8cKtRE4Cgy-115" target="f8aXV5ckbH8cKtRE4Cgy-115" edge="1">
          <mxGeometry width="50" height="50" relative="1" as="geometry">
            <mxPoint x="70" y="150" as="sourcePoint" />
            <mxPoint x="120" y="100" as="targetPoint" />
          </mxGeometry>
        </mxCell>
        <mxCell id="f8aXV5ckbH8cKtRE4Cgy-117" value="&lt;font face=&quot;Lucida Console&quot;&gt;__proto__&lt;/font&gt;" style="text;html=1;strokeColor=none;fillColor=none;align=center;verticalAlign=middle;whiteSpace=wrap;rounded=0;" parent="f8aXV5ckbH8cKtRE4Cgy-114" vertex="1">
          <mxGeometry x="20" y="55" width="40" height="20" as="geometry" />
        </mxCell>
        <mxCell id="f8aXV5ckbH8cKtRE4Cgy-118" value="" style="rounded=0;whiteSpace=wrap;html=1;strokeColor=#000000;" parent="f8aXV5ckbH8cKtRE4Cgy-114" vertex="1">
          <mxGeometry width="80" height="80" as="geometry" />
        </mxCell>
        <mxCell id="f8aXV5ckbH8cKtRE4Cgy-119" value="" style="endArrow=none;html=1;exitX=0.002;exitY=0.674;exitDx=0;exitDy=0;exitPerimeter=0;entryX=1;entryY=0.674;entryDx=0;entryDy=0;entryPerimeter=0;" parent="f8aXV5ckbH8cKtRE4Cgy-114" source="f8aXV5ckbH8cKtRE4Cgy-118" target="f8aXV5ckbH8cKtRE4Cgy-118" edge="1">
          <mxGeometry width="50" height="50" relative="1" as="geometry">
            <mxPoint x="70" y="150" as="sourcePoint" />
            <mxPoint x="120" y="100" as="targetPoint" />
          </mxGeometry>
        </mxCell>
        <mxCell id="f8aXV5ckbH8cKtRE4Cgy-120" value="&lt;font face=&quot;Lucida Console&quot;&gt;prototype&lt;/font&gt;" style="text;html=1;strokeColor=none;fillColor=none;align=center;verticalAlign=middle;whiteSpace=wrap;rounded=0;" parent="f8aXV5ckbH8cKtRE4Cgy-114" vertex="1">
          <mxGeometry x="20" y="56" width="40" height="20" as="geometry" />
        </mxCell>
        <mxCell id="f8aXV5ckbH8cKtRE4Cgy-57" value="" style="rounded=0;whiteSpace=wrap;html=1;strokeColor=#000000;" parent="1" vertex="1">
          <mxGeometry x="520" y="400" width="80" height="80" as="geometry" />
        </mxCell>
        <mxCell id="f8aXV5ckbH8cKtRE4Cgy-58" value="" style="endArrow=none;html=1;exitX=0.002;exitY=0.674;exitDx=0;exitDy=0;exitPerimeter=0;entryX=1;entryY=0.674;entryDx=0;entryDy=0;entryPerimeter=0;" parent="1" source="f8aXV5ckbH8cKtRE4Cgy-57" target="f8aXV5ckbH8cKtRE4Cgy-57" edge="1">
          <mxGeometry width="50" height="50" relative="1" as="geometry">
            <mxPoint x="590" y="550" as="sourcePoint" />
            <mxPoint x="640" y="500" as="targetPoint" />
          </mxGeometry>
        </mxCell>
        <mxCell id="f8aXV5ckbH8cKtRE4Cgy-59" value="&lt;font face=&quot;Lucida Console&quot;&gt;__proto__&lt;/font&gt;" style="text;html=1;strokeColor=none;fillColor=none;align=center;verticalAlign=middle;whiteSpace=wrap;rounded=0;" parent="1" vertex="1">
          <mxGeometry x="540" y="455" width="40" height="20" as="geometry" />
        </mxCell>
        <mxCell id="f8aXV5ckbH8cKtRE4Cgy-60" value="" style="rounded=0;whiteSpace=wrap;html=1;strokeColor=#000000;" parent="1" vertex="1">
          <mxGeometry x="520" y="400" width="80" height="80" as="geometry" />
        </mxCell>
        <mxCell id="f8aXV5ckbH8cKtRE4Cgy-61" value="" style="endArrow=none;html=1;exitX=0.002;exitY=0.674;exitDx=0;exitDy=0;exitPerimeter=0;entryX=1;entryY=0.674;entryDx=0;entryDy=0;entryPerimeter=0;" parent="1" source="f8aXV5ckbH8cKtRE4Cgy-60" target="f8aXV5ckbH8cKtRE4Cgy-60" edge="1">
          <mxGeometry width="50" height="50" relative="1" as="geometry">
            <mxPoint x="590" y="550" as="sourcePoint" />
            <mxPoint x="640" y="500" as="targetPoint" />
          </mxGeometry>
        </mxCell>
        <mxCell id="f8aXV5ckbH8cKtRE4Cgy-62" value="&lt;font face=&quot;Lucida Console&quot;&gt;__proto__&lt;/font&gt;" style="text;html=1;strokeColor=none;fillColor=none;align=center;verticalAlign=middle;whiteSpace=wrap;rounded=0;" parent="1" vertex="1">
          <mxGeometry x="540" y="455" width="40" height="20" as="geometry" />
        </mxCell>
        <mxCell id="f8aXV5ckbH8cKtRE4Cgy-63" value="" style="rounded=0;whiteSpace=wrap;html=1;strokeColor=#000000;" parent="1" vertex="1">
          <mxGeometry x="520" y="480" width="80" height="26" as="geometry" />
        </mxCell>
        <mxCell id="f8aXV5ckbH8cKtRE4Cgy-65" value="" style="rounded=0;whiteSpace=wrap;html=1;strokeColor=#000000;" parent="1" vertex="1">
          <mxGeometry x="520" y="400" width="80" height="80" as="geometry" />
        </mxCell>
        <mxCell id="f8aXV5ckbH8cKtRE4Cgy-66" value="" style="endArrow=none;html=1;exitX=0.002;exitY=0.674;exitDx=0;exitDy=0;exitPerimeter=0;entryX=1;entryY=0.674;entryDx=0;entryDy=0;entryPerimeter=0;" parent="1" source="f8aXV5ckbH8cKtRE4Cgy-65" target="f8aXV5ckbH8cKtRE4Cgy-65" edge="1">
          <mxGeometry width="50" height="50" relative="1" as="geometry">
            <mxPoint x="590" y="550" as="sourcePoint" />
            <mxPoint x="640" y="500" as="targetPoint" />
          </mxGeometry>
        </mxCell>
        <mxCell id="f8aXV5ckbH8cKtRE4Cgy-67" value="&lt;font face=&quot;Lucida Console&quot;&gt;__proto__&lt;/font&gt;" style="text;html=1;strokeColor=none;fillColor=none;align=center;verticalAlign=middle;whiteSpace=wrap;rounded=0;" parent="1" vertex="1">
          <mxGeometry x="540" y="455" width="40" height="20" as="geometry" />
        </mxCell>
        <mxCell id="f8aXV5ckbH8cKtRE4Cgy-68" value="" style="rounded=0;whiteSpace=wrap;html=1;strokeColor=#000000;" parent="1" vertex="1">
          <mxGeometry x="520" y="400" width="80" height="80" as="geometry" />
        </mxCell>
        <mxCell id="f8aXV5ckbH8cKtRE4Cgy-69" value="" style="endArrow=none;html=1;exitX=0.002;exitY=0.674;exitDx=0;exitDy=0;exitPerimeter=0;entryX=1;entryY=0.674;entryDx=0;entryDy=0;entryPerimeter=0;" parent="1" source="f8aXV5ckbH8cKtRE4Cgy-68" target="f8aXV5ckbH8cKtRE4Cgy-68" edge="1">
          <mxGeometry width="50" height="50" relative="1" as="geometry">
            <mxPoint x="590" y="550" as="sourcePoint" />
            <mxPoint x="640" y="500" as="targetPoint" />
          </mxGeometry>
        </mxCell>
        <mxCell id="f8aXV5ckbH8cKtRE4Cgy-70" value="constructor" style="text;html=1;strokeColor=none;fillColor=none;align=center;verticalAlign=middle;whiteSpace=wrap;rounded=0;" parent="1" vertex="1">
          <mxGeometry x="540" y="455" width="40" height="20" as="geometry" />
        </mxCell>
        <mxCell id="f8aXV5ckbH8cKtRE4Cgy-71" value="" style="rounded=0;whiteSpace=wrap;html=1;strokeColor=#000000;" parent="1" vertex="1">
          <mxGeometry x="520" y="480" width="80" height="26" as="geometry" />
        </mxCell>
        <mxCell id="f8aXV5ckbH8cKtRE4Cgy-72" value="&lt;!--StartFragment--&gt;&lt;font face=&quot;Lucida Console&quot;&gt;__proto__&lt;/font&gt;&lt;!--EndFragment--&gt;" style="text;whiteSpace=wrap;html=1;" parent="1" vertex="1">
          <mxGeometry x="525" y="478" width="90" height="30" as="geometry" />
        </mxCell>
        <mxCell id="f8aXV5ckbH8cKtRE4Cgy-75" value="" style="rounded=0;whiteSpace=wrap;html=1;strokeColor=#000000;" parent="1" vertex="1">
          <mxGeometry x="520" y="400" width="80" height="80" as="geometry" />
        </mxCell>
        <mxCell id="f8aXV5ckbH8cKtRE4Cgy-76" value="" style="endArrow=none;html=1;exitX=0.002;exitY=0.674;exitDx=0;exitDy=0;exitPerimeter=0;entryX=1;entryY=0.674;entryDx=0;entryDy=0;entryPerimeter=0;" parent="1" source="f8aXV5ckbH8cKtRE4Cgy-75" target="f8aXV5ckbH8cKtRE4Cgy-75" edge="1">
          <mxGeometry width="50" height="50" relative="1" as="geometry">
            <mxPoint x="590" y="550" as="sourcePoint" />
            <mxPoint x="640" y="500" as="targetPoint" />
          </mxGeometry>
        </mxCell>
        <mxCell id="f8aXV5ckbH8cKtRE4Cgy-77" value="&lt;font face=&quot;Lucida Console&quot;&gt;__proto__&lt;/font&gt;" style="text;html=1;strokeColor=none;fillColor=none;align=center;verticalAlign=middle;whiteSpace=wrap;rounded=0;" parent="1" vertex="1">
          <mxGeometry x="540" y="455" width="40" height="20" as="geometry" />
        </mxCell>
        <mxCell id="f8aXV5ckbH8cKtRE4Cgy-78" value="" style="rounded=0;whiteSpace=wrap;html=1;strokeColor=#000000;" parent="1" vertex="1">
          <mxGeometry x="520" y="400" width="80" height="80" as="geometry" />
        </mxCell>
        <mxCell id="f8aXV5ckbH8cKtRE4Cgy-79" value="" style="endArrow=none;html=1;exitX=0.002;exitY=0.674;exitDx=0;exitDy=0;exitPerimeter=0;entryX=1;entryY=0.674;entryDx=0;entryDy=0;entryPerimeter=0;" parent="1" source="f8aXV5ckbH8cKtRE4Cgy-78" target="f8aXV5ckbH8cKtRE4Cgy-78" edge="1">
          <mxGeometry width="50" height="50" relative="1" as="geometry">
            <mxPoint x="590" y="550" as="sourcePoint" />
            <mxPoint x="640" y="500" as="targetPoint" />
          </mxGeometry>
        </mxCell>
        <mxCell id="f8aXV5ckbH8cKtRE4Cgy-80" value="&lt;font face=&quot;Lucida Console&quot;&gt;__proto__&lt;/font&gt;" style="text;html=1;strokeColor=none;fillColor=none;align=center;verticalAlign=middle;whiteSpace=wrap;rounded=0;" parent="1" vertex="1">
          <mxGeometry x="540" y="455" width="40" height="20" as="geometry" />
        </mxCell>
        <mxCell id="f8aXV5ckbH8cKtRE4Cgy-81" value="" style="rounded=0;whiteSpace=wrap;html=1;strokeColor=#000000;" parent="1" vertex="1">
          <mxGeometry x="520" y="480" width="80" height="26" as="geometry" />
        </mxCell>
        <mxCell id="f8aXV5ckbH8cKtRE4Cgy-83" value="" style="rounded=0;whiteSpace=wrap;html=1;strokeColor=#000000;" parent="1" vertex="1">
          <mxGeometry x="520" y="400" width="80" height="80" as="geometry" />
        </mxCell>
        <mxCell id="f8aXV5ckbH8cKtRE4Cgy-84" value="" style="endArrow=none;html=1;exitX=0.002;exitY=0.674;exitDx=0;exitDy=0;exitPerimeter=0;entryX=1;entryY=0.674;entryDx=0;entryDy=0;entryPerimeter=0;" parent="1" source="f8aXV5ckbH8cKtRE4Cgy-83" target="f8aXV5ckbH8cKtRE4Cgy-83" edge="1">
          <mxGeometry width="50" height="50" relative="1" as="geometry">
            <mxPoint x="590" y="550" as="sourcePoint" />
            <mxPoint x="640" y="500" as="targetPoint" />
          </mxGeometry>
        </mxCell>
        <mxCell id="f8aXV5ckbH8cKtRE4Cgy-85" value="&lt;font face=&quot;Lucida Console&quot;&gt;__proto__&lt;/font&gt;" style="text;html=1;strokeColor=none;fillColor=none;align=center;verticalAlign=middle;whiteSpace=wrap;rounded=0;" parent="1" vertex="1">
          <mxGeometry x="540" y="455" width="40" height="20" as="geometry" />
        </mxCell>
        <mxCell id="f8aXV5ckbH8cKtRE4Cgy-86" value="" style="rounded=0;whiteSpace=wrap;html=1;strokeColor=#000000;" parent="1" vertex="1">
          <mxGeometry x="520" y="400" width="80" height="80" as="geometry" />
        </mxCell>
        <mxCell id="f8aXV5ckbH8cKtRE4Cgy-87" value="" style="endArrow=none;html=1;exitX=0.002;exitY=0.674;exitDx=0;exitDy=0;exitPerimeter=0;entryX=1;entryY=0.674;entryDx=0;entryDy=0;entryPerimeter=0;" parent="1" source="f8aXV5ckbH8cKtRE4Cgy-86" target="f8aXV5ckbH8cKtRE4Cgy-86" edge="1">
          <mxGeometry width="50" height="50" relative="1" as="geometry">
            <mxPoint x="590" y="550" as="sourcePoint" />
            <mxPoint x="640" y="500" as="targetPoint" />
          </mxGeometry>
        </mxCell>
        <mxCell id="f8aXV5ckbH8cKtRE4Cgy-146" style="edgeStyle=orthogonalEdgeStyle;orthogonalLoop=1;jettySize=auto;html=1;exitX=1;exitY=0.5;exitDx=0;exitDy=0;entryX=1.011;entryY=0.26;entryDx=0;entryDy=0;startArrow=none;startFill=0;endArrow=block;endFill=1;strokeColor=#000000;curved=1;entryPerimeter=0;" parent="1" edge="1">
          <mxGeometry relative="1" as="geometry">
            <Array as="points">
              <mxPoint x="636" y="468" />
              <mxPoint x="636" y="303" />
            </Array>
            <mxPoint x="596" y="468" as="sourcePoint" />
            <mxPoint x="600.8799999999999" y="302.80000000000007" as="targetPoint" />
          </mxGeometry>
        </mxCell>
        <mxCell id="f8aXV5ckbH8cKtRE4Cgy-88" value="&lt;font face=&quot;Lucida Console&quot;&gt;constructor&lt;/font&gt;" style="text;html=1;strokeColor=none;fillColor=none;align=center;verticalAlign=middle;whiteSpace=wrap;rounded=0;" parent="1" vertex="1">
          <mxGeometry x="541" y="456" width="40" height="20" as="geometry" />
        </mxCell>
        <mxCell id="f8aXV5ckbH8cKtRE4Cgy-89" value="" style="rounded=0;whiteSpace=wrap;html=1;strokeColor=#000000;" parent="1" vertex="1">
          <mxGeometry x="520" y="480" width="80" height="26" as="geometry" />
        </mxCell>
        <mxCell id="f8aXV5ckbH8cKtRE4Cgy-90" value="&lt;!--StartFragment--&gt;&lt;font face=&quot;Lucida Console&quot;&gt;__proto__&lt;/font&gt;&lt;!--EndFragment--&gt;" style="text;whiteSpace=wrap;html=1;" parent="1" vertex="1">
          <mxGeometry x="525" y="478" width="75" height="30" as="geometry" />
        </mxCell>
        <mxCell id="f8aXV5ckbH8cKtRE4Cgy-121" value="&lt;h2&gt;&lt;font face=&quot;Lucida Console&quot;&gt;Animal&lt;/font&gt;&lt;/h2&gt;" style="text;html=1;strokeColor=none;fillColor=none;align=center;verticalAlign=middle;whiteSpace=wrap;rounded=0;" parent="1" vertex="1">
          <mxGeometry x="420" y="220" width="40" height="20" as="geometry" />
        </mxCell>
        <mxCell id="f8aXV5ckbH8cKtRE4Cgy-122" value="&lt;h2&gt;&lt;font face=&quot;Lucida Console&quot;&gt;Object&lt;/font&gt;&lt;/h2&gt;" style="text;html=1;strokeColor=none;fillColor=none;align=center;verticalAlign=middle;whiteSpace=wrap;rounded=0;" parent="1" vertex="1">
          <mxGeometry x="540" y="260" width="40" height="20" as="geometry" />
        </mxCell>
        <mxCell id="f8aXV5ckbH8cKtRE4Cgy-124" value="&lt;font face=&quot;Lucida Console&quot;&gt;new Animal()&lt;/font&gt;" style="text;html=1;strokeColor=none;fillColor=none;align=center;verticalAlign=middle;whiteSpace=wrap;rounded=0;" parent="1" vertex="1">
          <mxGeometry x="30" y="310" width="90" height="20" as="geometry" />
        </mxCell>
        <mxCell id="f8aXV5ckbH8cKtRE4Cgy-142" value="" style="endArrow=classic;html=1;strokeColor=#000000;exitX=1;exitY=0.5;exitDx=0;exitDy=0;entryX=0;entryY=0.5;entryDx=0;entryDy=0;" parent="1" source="f8aXV5ckbH8cKtRE4Cgy-124" target="f8aXV5ckbH8cKtRE4Cgy-30" edge="1">
          <mxGeometry width="50" height="50" relative="1" as="geometry">
            <mxPoint x="485" y="380" as="sourcePoint" />
            <mxPoint x="535" y="330" as="targetPoint" />
          </mxGeometry>
        </mxCell>
        <mxCell id="f8aXV5ckbH8cKtRE4Cgy-143" value="" style="endArrow=classic;html=1;strokeColor=#000000;entryX=0.001;entryY=0.305;entryDx=0;entryDy=0;entryPerimeter=0;exitX=1.004;exitY=0.806;exitDx=0;exitDy=0;exitPerimeter=0;" parent="1" target="1VPXngd0XY4O77EjPJEO-42" edge="1">
          <mxGeometry width="50" height="50" relative="1" as="geometry">
            <mxPoint x="237.32000000000005" y="344.48" as="sourcePoint" />
            <mxPoint x="276.92" y="344.64" as="targetPoint" />
          </mxGeometry>
        </mxCell>
        <mxCell id="f8aXV5ckbH8cKtRE4Cgy-144" value="" style="endArrow=classic;html=1;strokeColor=#000000;" parent="1" edge="1">
          <mxGeometry width="50" height="50" relative="1" as="geometry">
            <mxPoint x="477" y="450" as="sourcePoint" />
            <mxPoint x="520" y="450" as="targetPoint" />
          </mxGeometry>
        </mxCell>
        <mxCell id="VXwlt__lYXezAoYkoDiR-1" value="" style="endArrow=classic;html=1;exitX=0.989;exitY=0.5;exitDx=0;exitDy=0;exitPerimeter=0;" parent="1" edge="1">
          <mxGeometry width="50" height="50" relative="1" as="geometry">
            <mxPoint x="596.1750000000001" y="493" as="sourcePoint" />
            <mxPoint x="637" y="493" as="targetPoint" />
          </mxGeometry>
        </mxCell>
        <mxCell id="VXwlt__lYXezAoYkoDiR-2" value="&lt;font face=&quot;Lucida Console&quot;&gt;null&lt;/font&gt;" style="text;html=1;strokeColor=none;fillColor=none;align=center;verticalAlign=middle;whiteSpace=wrap;rounded=0;" parent="1" vertex="1">
          <mxGeometry x="640" y="483" width="40" height="20" as="geometry" />
        </mxCell>
        <mxCell id="1VPXngd0XY4O77EjPJEO-1" value="" style="endArrow=classic;html=1;exitX=0.5;exitY=1;exitDx=0;exitDy=0;entryX=0.5;entryY=0;entryDx=0;entryDy=0;" parent="1" source="f8aXV5ckbH8cKtRE4Cgy-106" target="f8aXV5ckbH8cKtRE4Cgy-49" edge="1">
          <mxGeometry width="50" height="50" relative="1" as="geometry">
            <mxPoint x="400" y="430" as="sourcePoint" />
            <mxPoint x="450" y="380" as="targetPoint" />
          </mxGeometry>
        </mxCell>
        <mxCell id="1VPXngd0XY4O77EjPJEO-2" value="" style="endArrow=classic;html=1;entryX=0.5;entryY=0;entryDx=0;entryDy=0;exitX=0.5;exitY=1;exitDx=0;exitDy=0;" parent="1" source="f8aXV5ckbH8cKtRE4Cgy-120" target="f8aXV5ckbH8cKtRE4Cgy-86" edge="1">
          <mxGeometry width="50" height="50" relative="1" as="geometry">
            <mxPoint x="560" y="356" as="sourcePoint" />
            <mxPoint x="560" y="396" as="targetPoint" />
          </mxGeometry>
        </mxCell>
        <mxCell id="1VPXngd0XY4O77EjPJEO-3" value="" style="group" parent="1" vertex="1" connectable="0">
          <mxGeometry x="280" y="200" width="80" height="80" as="geometry" />
        </mxCell>
        <mxCell id="1VPXngd0XY4O77EjPJEO-4" value="" style="rounded=0;whiteSpace=wrap;html=1;strokeColor=#000000;" parent="1VPXngd0XY4O77EjPJEO-3" vertex="1">
          <mxGeometry width="80" height="80" as="geometry" />
        </mxCell>
        <mxCell id="1VPXngd0XY4O77EjPJEO-5" value="" style="endArrow=none;html=1;exitX=0.002;exitY=0.674;exitDx=0;exitDy=0;exitPerimeter=0;entryX=1;entryY=0.674;entryDx=0;entryDy=0;entryPerimeter=0;" parent="1VPXngd0XY4O77EjPJEO-3" source="1VPXngd0XY4O77EjPJEO-4" target="1VPXngd0XY4O77EjPJEO-4" edge="1">
          <mxGeometry width="50" height="50" relative="1" as="geometry">
            <mxPoint x="70" y="150" as="sourcePoint" />
            <mxPoint x="120" y="100" as="targetPoint" />
          </mxGeometry>
        </mxCell>
        <mxCell id="1VPXngd0XY4O77EjPJEO-6" value="&lt;font face=&quot;Lucida Console&quot;&gt;__proto__&lt;/font&gt;" style="text;html=1;strokeColor=none;fillColor=none;align=center;verticalAlign=middle;whiteSpace=wrap;rounded=0;" parent="1VPXngd0XY4O77EjPJEO-3" vertex="1">
          <mxGeometry x="20" y="55" width="40" height="20" as="geometry" />
        </mxCell>
        <mxCell id="1VPXngd0XY4O77EjPJEO-7" value="" style="rounded=0;whiteSpace=wrap;html=1;strokeColor=#000000;" parent="1VPXngd0XY4O77EjPJEO-3" vertex="1">
          <mxGeometry width="80" height="80" as="geometry" />
        </mxCell>
        <mxCell id="1VPXngd0XY4O77EjPJEO-8" value="" style="endArrow=none;html=1;exitX=0.002;exitY=0.674;exitDx=0;exitDy=0;exitPerimeter=0;entryX=1;entryY=0.674;entryDx=0;entryDy=0;entryPerimeter=0;" parent="1VPXngd0XY4O77EjPJEO-3" source="1VPXngd0XY4O77EjPJEO-7" target="1VPXngd0XY4O77EjPJEO-7" edge="1">
          <mxGeometry width="50" height="50" relative="1" as="geometry">
            <mxPoint x="70" y="150" as="sourcePoint" />
            <mxPoint x="120" y="100" as="targetPoint" />
          </mxGeometry>
        </mxCell>
        <mxCell id="1VPXngd0XY4O77EjPJEO-9" value="&lt;font face=&quot;Lucida Console&quot;&gt;__proto__&lt;/font&gt;" style="text;html=1;strokeColor=none;fillColor=none;align=center;verticalAlign=middle;whiteSpace=wrap;rounded=0;" parent="1VPXngd0XY4O77EjPJEO-3" vertex="1">
          <mxGeometry x="20" y="55" width="40" height="20" as="geometry" />
        </mxCell>
        <mxCell id="1VPXngd0XY4O77EjPJEO-10" value="" style="group" parent="1" vertex="1" connectable="0">
          <mxGeometry x="280" y="200" width="80" height="80" as="geometry" />
        </mxCell>
        <mxCell id="1VPXngd0XY4O77EjPJEO-11" value="" style="rounded=0;whiteSpace=wrap;html=1;strokeColor=#000000;" parent="1VPXngd0XY4O77EjPJEO-10" vertex="1">
          <mxGeometry width="80" height="80" as="geometry" />
        </mxCell>
        <mxCell id="1VPXngd0XY4O77EjPJEO-12" value="" style="endArrow=none;html=1;exitX=0.002;exitY=0.674;exitDx=0;exitDy=0;exitPerimeter=0;entryX=1;entryY=0.674;entryDx=0;entryDy=0;entryPerimeter=0;" parent="1VPXngd0XY4O77EjPJEO-10" source="1VPXngd0XY4O77EjPJEO-11" target="1VPXngd0XY4O77EjPJEO-11" edge="1">
          <mxGeometry width="50" height="50" relative="1" as="geometry">
            <mxPoint x="70" y="150" as="sourcePoint" />
            <mxPoint x="120" y="100" as="targetPoint" />
          </mxGeometry>
        </mxCell>
        <mxCell id="1VPXngd0XY4O77EjPJEO-13" value="&lt;font face=&quot;Lucida Console&quot;&gt;__proto__&lt;/font&gt;" style="text;html=1;strokeColor=none;fillColor=none;align=center;verticalAlign=middle;whiteSpace=wrap;rounded=0;" parent="1VPXngd0XY4O77EjPJEO-10" vertex="1">
          <mxGeometry x="20" y="55" width="40" height="20" as="geometry" />
        </mxCell>
        <mxCell id="1VPXngd0XY4O77EjPJEO-14" value="" style="rounded=0;whiteSpace=wrap;html=1;strokeColor=#000000;" parent="1VPXngd0XY4O77EjPJEO-10" vertex="1">
          <mxGeometry width="80" height="80" as="geometry" />
        </mxCell>
        <mxCell id="1VPXngd0XY4O77EjPJEO-15" value="" style="endArrow=none;html=1;exitX=0.002;exitY=0.674;exitDx=0;exitDy=0;exitPerimeter=0;entryX=1;entryY=0.674;entryDx=0;entryDy=0;entryPerimeter=0;" parent="1VPXngd0XY4O77EjPJEO-10" source="1VPXngd0XY4O77EjPJEO-14" target="1VPXngd0XY4O77EjPJEO-14" edge="1">
          <mxGeometry width="50" height="50" relative="1" as="geometry">
            <mxPoint x="70" y="150" as="sourcePoint" />
            <mxPoint x="120" y="100" as="targetPoint" />
          </mxGeometry>
        </mxCell>
        <mxCell id="1VPXngd0XY4O77EjPJEO-16" value="&lt;font face=&quot;Lucida Console&quot;&gt;prototype&lt;/font&gt;" style="text;html=1;strokeColor=none;fillColor=none;align=center;verticalAlign=middle;whiteSpace=wrap;rounded=0;" parent="1VPXngd0XY4O77EjPJEO-10" vertex="1">
          <mxGeometry x="20" y="56" width="40" height="20" as="geometry" />
        </mxCell>
        <mxCell id="1VPXngd0XY4O77EjPJEO-17" value="" style="rounded=0;whiteSpace=wrap;html=1;strokeColor=#000000;" parent="1" vertex="1">
          <mxGeometry x="280" y="320" width="80" height="80" as="geometry" />
        </mxCell>
        <mxCell id="1VPXngd0XY4O77EjPJEO-18" value="" style="endArrow=none;html=1;exitX=0.002;exitY=0.674;exitDx=0;exitDy=0;exitPerimeter=0;entryX=1;entryY=0.674;entryDx=0;entryDy=0;entryPerimeter=0;" parent="1" source="1VPXngd0XY4O77EjPJEO-17" target="1VPXngd0XY4O77EjPJEO-17" edge="1">
          <mxGeometry width="50" height="50" relative="1" as="geometry">
            <mxPoint x="350" y="470" as="sourcePoint" />
            <mxPoint x="400" y="420" as="targetPoint" />
          </mxGeometry>
        </mxCell>
        <mxCell id="1VPXngd0XY4O77EjPJEO-19" value="&lt;font face=&quot;Lucida Console&quot;&gt;__proto__&lt;/font&gt;" style="text;html=1;strokeColor=none;fillColor=none;align=center;verticalAlign=middle;whiteSpace=wrap;rounded=0;" parent="1" vertex="1">
          <mxGeometry x="300" y="375" width="40" height="20" as="geometry" />
        </mxCell>
        <mxCell id="1VPXngd0XY4O77EjPJEO-20" value="" style="rounded=0;whiteSpace=wrap;html=1;strokeColor=#000000;" parent="1" vertex="1">
          <mxGeometry x="280" y="320" width="80" height="80" as="geometry" />
        </mxCell>
        <mxCell id="1VPXngd0XY4O77EjPJEO-21" value="" style="endArrow=none;html=1;exitX=0.002;exitY=0.674;exitDx=0;exitDy=0;exitPerimeter=0;entryX=1;entryY=0.674;entryDx=0;entryDy=0;entryPerimeter=0;" parent="1" source="1VPXngd0XY4O77EjPJEO-20" target="1VPXngd0XY4O77EjPJEO-20" edge="1">
          <mxGeometry width="50" height="50" relative="1" as="geometry">
            <mxPoint x="350" y="470" as="sourcePoint" />
            <mxPoint x="400" y="420" as="targetPoint" />
          </mxGeometry>
        </mxCell>
        <mxCell id="1VPXngd0XY4O77EjPJEO-22" value="&lt;font face=&quot;Lucida Console&quot;&gt;__proto__&lt;/font&gt;" style="text;html=1;strokeColor=none;fillColor=none;align=center;verticalAlign=middle;whiteSpace=wrap;rounded=0;" parent="1" vertex="1">
          <mxGeometry x="300" y="375" width="40" height="20" as="geometry" />
        </mxCell>
        <mxCell id="1VPXngd0XY4O77EjPJEO-23" value="" style="rounded=0;whiteSpace=wrap;html=1;strokeColor=#000000;" parent="1" vertex="1">
          <mxGeometry x="280" y="400" width="80" height="26" as="geometry" />
        </mxCell>
        <mxCell id="1VPXngd0XY4O77EjPJEO-24" value="" style="rounded=0;whiteSpace=wrap;html=1;strokeColor=#000000;" parent="1" vertex="1">
          <mxGeometry x="280" y="320" width="80" height="80" as="geometry" />
        </mxCell>
        <mxCell id="1VPXngd0XY4O77EjPJEO-25" value="" style="endArrow=none;html=1;exitX=0.002;exitY=0.674;exitDx=0;exitDy=0;exitPerimeter=0;entryX=1;entryY=0.674;entryDx=0;entryDy=0;entryPerimeter=0;" parent="1" source="1VPXngd0XY4O77EjPJEO-24" target="1VPXngd0XY4O77EjPJEO-24" edge="1">
          <mxGeometry width="50" height="50" relative="1" as="geometry">
            <mxPoint x="350" y="470" as="sourcePoint" />
            <mxPoint x="400" y="420" as="targetPoint" />
          </mxGeometry>
        </mxCell>
        <mxCell id="1VPXngd0XY4O77EjPJEO-26" value="&lt;font face=&quot;Lucida Console&quot;&gt;__proto__&lt;/font&gt;" style="text;html=1;strokeColor=none;fillColor=none;align=center;verticalAlign=middle;whiteSpace=wrap;rounded=0;" parent="1" vertex="1">
          <mxGeometry x="300" y="375" width="40" height="20" as="geometry" />
        </mxCell>
        <mxCell id="1VPXngd0XY4O77EjPJEO-27" value="" style="rounded=0;whiteSpace=wrap;html=1;strokeColor=#000000;" parent="1" vertex="1">
          <mxGeometry x="280" y="320" width="80" height="80" as="geometry" />
        </mxCell>
        <mxCell id="1VPXngd0XY4O77EjPJEO-28" value="" style="endArrow=none;html=1;exitX=0.002;exitY=0.674;exitDx=0;exitDy=0;exitPerimeter=0;entryX=1;entryY=0.674;entryDx=0;entryDy=0;entryPerimeter=0;" parent="1" source="1VPXngd0XY4O77EjPJEO-27" target="1VPXngd0XY4O77EjPJEO-27" edge="1">
          <mxGeometry width="50" height="50" relative="1" as="geometry">
            <mxPoint x="350" y="470" as="sourcePoint" />
            <mxPoint x="400" y="420" as="targetPoint" />
          </mxGeometry>
        </mxCell>
        <mxCell id="1VPXngd0XY4O77EjPJEO-29" value="constructor" style="text;html=1;strokeColor=none;fillColor=none;align=center;verticalAlign=middle;whiteSpace=wrap;rounded=0;" parent="1" vertex="1">
          <mxGeometry x="300" y="375" width="40" height="20" as="geometry" />
        </mxCell>
        <mxCell id="1VPXngd0XY4O77EjPJEO-30" value="" style="rounded=0;whiteSpace=wrap;html=1;strokeColor=#000000;" parent="1" vertex="1">
          <mxGeometry x="280" y="400" width="80" height="26" as="geometry" />
        </mxCell>
        <mxCell id="1VPXngd0XY4O77EjPJEO-31" value="&lt;!--StartFragment--&gt;&lt;font face=&quot;Lucida Console&quot;&gt;__proto__&lt;/font&gt;&lt;!--EndFragment--&gt;" style="text;whiteSpace=wrap;html=1;" parent="1" vertex="1">
          <mxGeometry x="285" y="398" width="90" height="30" as="geometry" />
        </mxCell>
        <mxCell id="1VPXngd0XY4O77EjPJEO-32" value="" style="rounded=0;whiteSpace=wrap;html=1;strokeColor=#000000;" parent="1" vertex="1">
          <mxGeometry x="280" y="320" width="80" height="80" as="geometry" />
        </mxCell>
        <mxCell id="1VPXngd0XY4O77EjPJEO-33" value="" style="endArrow=none;html=1;exitX=0.002;exitY=0.674;exitDx=0;exitDy=0;exitPerimeter=0;entryX=1;entryY=0.674;entryDx=0;entryDy=0;entryPerimeter=0;" parent="1" source="1VPXngd0XY4O77EjPJEO-32" target="1VPXngd0XY4O77EjPJEO-32" edge="1">
          <mxGeometry width="50" height="50" relative="1" as="geometry">
            <mxPoint x="350" y="470" as="sourcePoint" />
            <mxPoint x="400" y="420" as="targetPoint" />
          </mxGeometry>
        </mxCell>
        <mxCell id="1VPXngd0XY4O77EjPJEO-34" value="&lt;font face=&quot;Lucida Console&quot;&gt;__proto__&lt;/font&gt;" style="text;html=1;strokeColor=none;fillColor=none;align=center;verticalAlign=middle;whiteSpace=wrap;rounded=0;" parent="1" vertex="1">
          <mxGeometry x="300" y="375" width="40" height="20" as="geometry" />
        </mxCell>
        <mxCell id="1VPXngd0XY4O77EjPJEO-35" value="" style="rounded=0;whiteSpace=wrap;html=1;strokeColor=#000000;" parent="1" vertex="1">
          <mxGeometry x="280" y="320" width="80" height="80" as="geometry" />
        </mxCell>
        <mxCell id="1VPXngd0XY4O77EjPJEO-36" value="" style="endArrow=none;html=1;exitX=0.002;exitY=0.674;exitDx=0;exitDy=0;exitPerimeter=0;entryX=1;entryY=0.674;entryDx=0;entryDy=0;entryPerimeter=0;" parent="1" source="1VPXngd0XY4O77EjPJEO-35" target="1VPXngd0XY4O77EjPJEO-35" edge="1">
          <mxGeometry width="50" height="50" relative="1" as="geometry">
            <mxPoint x="350" y="470" as="sourcePoint" />
            <mxPoint x="400" y="420" as="targetPoint" />
          </mxGeometry>
        </mxCell>
        <mxCell id="1VPXngd0XY4O77EjPJEO-37" value="&lt;font face=&quot;Lucida Console&quot;&gt;__proto__&lt;/font&gt;" style="text;html=1;strokeColor=none;fillColor=none;align=center;verticalAlign=middle;whiteSpace=wrap;rounded=0;" parent="1" vertex="1">
          <mxGeometry x="300" y="375" width="40" height="20" as="geometry" />
        </mxCell>
        <mxCell id="1VPXngd0XY4O77EjPJEO-38" value="" style="rounded=0;whiteSpace=wrap;html=1;strokeColor=#000000;" parent="1" vertex="1">
          <mxGeometry x="280" y="400" width="80" height="26" as="geometry" />
        </mxCell>
        <mxCell id="1VPXngd0XY4O77EjPJEO-39" value="" style="rounded=0;whiteSpace=wrap;html=1;strokeColor=#000000;" parent="1" vertex="1">
          <mxGeometry x="280" y="320" width="80" height="80" as="geometry" />
        </mxCell>
        <mxCell id="1VPXngd0XY4O77EjPJEO-40" value="" style="endArrow=none;html=1;exitX=0.002;exitY=0.674;exitDx=0;exitDy=0;exitPerimeter=0;entryX=1;entryY=0.674;entryDx=0;entryDy=0;entryPerimeter=0;" parent="1" source="1VPXngd0XY4O77EjPJEO-39" target="1VPXngd0XY4O77EjPJEO-39" edge="1">
          <mxGeometry width="50" height="50" relative="1" as="geometry">
            <mxPoint x="350" y="470" as="sourcePoint" />
            <mxPoint x="400" y="420" as="targetPoint" />
          </mxGeometry>
        </mxCell>
        <mxCell id="1VPXngd0XY4O77EjPJEO-41" value="&lt;font face=&quot;Lucida Console&quot;&gt;__proto__&lt;/font&gt;" style="text;html=1;strokeColor=none;fillColor=none;align=center;verticalAlign=middle;whiteSpace=wrap;rounded=0;" parent="1" vertex="1">
          <mxGeometry x="300" y="375" width="40" height="20" as="geometry" />
        </mxCell>
        <mxCell id="1VPXngd0XY4O77EjPJEO-42" value="" style="rounded=0;whiteSpace=wrap;html=1;strokeColor=#000000;" parent="1" vertex="1">
          <mxGeometry x="280" y="320" width="80" height="80" as="geometry" />
        </mxCell>
        <mxCell id="1VPXngd0XY4O77EjPJEO-43" value="" style="endArrow=none;html=1;exitX=0.002;exitY=0.674;exitDx=0;exitDy=0;exitPerimeter=0;entryX=1;entryY=0.674;entryDx=0;entryDy=0;entryPerimeter=0;" parent="1" source="1VPXngd0XY4O77EjPJEO-42" target="1VPXngd0XY4O77EjPJEO-42" edge="1">
          <mxGeometry width="50" height="50" relative="1" as="geometry">
            <mxPoint x="350" y="470" as="sourcePoint" />
            <mxPoint x="400" y="420" as="targetPoint" />
          </mxGeometry>
        </mxCell>
        <mxCell id="1VPXngd0XY4O77EjPJEO-44" style="edgeStyle=orthogonalEdgeStyle;orthogonalLoop=1;jettySize=auto;html=1;exitX=0.5;exitY=0;exitDx=0;exitDy=0;entryX=1;entryY=0.5;entryDx=0;entryDy=0;startArrow=none;startFill=0;endArrow=block;endFill=1;strokeColor=none;rounded=1;" parent="1" source="1VPXngd0XY4O77EjPJEO-46" target="1VPXngd0XY4O77EjPJEO-14" edge="1">
          <mxGeometry relative="1" as="geometry" />
        </mxCell>
        <mxCell id="1VPXngd0XY4O77EjPJEO-45" style="edgeStyle=orthogonalEdgeStyle;orthogonalLoop=1;jettySize=auto;html=1;startArrow=none;startFill=0;endArrow=block;endFill=1;strokeColor=#000000;entryX=1;entryY=0.5;entryDx=0;entryDy=0;curved=1;" parent="1" edge="1">
          <mxGeometry relative="1" as="geometry">
            <mxPoint x="358" y="240" as="targetPoint" />
            <mxPoint x="358" y="388" as="sourcePoint" />
            <Array as="points">
              <mxPoint x="378" y="388" />
              <mxPoint x="378" y="240" />
            </Array>
          </mxGeometry>
        </mxCell>
        <mxCell id="1VPXngd0XY4O77EjPJEO-46" value="&lt;font face=&quot;Lucida Console&quot;&gt;constructor&lt;/font&gt;" style="text;html=1;strokeColor=none;fillColor=none;align=center;verticalAlign=middle;whiteSpace=wrap;rounded=0;" parent="1" vertex="1">
          <mxGeometry x="301" y="376" width="40" height="20" as="geometry" />
        </mxCell>
        <mxCell id="1VPXngd0XY4O77EjPJEO-47" value="" style="rounded=0;whiteSpace=wrap;html=1;strokeColor=#000000;" parent="1" vertex="1">
          <mxGeometry x="280" y="400" width="80" height="26" as="geometry" />
        </mxCell>
        <mxCell id="1VPXngd0XY4O77EjPJEO-48" value="&lt;!--StartFragment--&gt;&lt;font face=&quot;Lucida Console&quot;&gt;__proto__&lt;/font&gt;&lt;!--EndFragment--&gt;" style="text;whiteSpace=wrap;html=1;" parent="1" vertex="1">
          <mxGeometry x="285" y="398" width="75" height="22" as="geometry" />
        </mxCell>
        <mxCell id="1VPXngd0XY4O77EjPJEO-49" value="&lt;h2&gt;&lt;font face=&quot;Lucida Console&quot;&gt;Mammal&lt;/font&gt;&lt;/h2&gt;" style="text;html=1;strokeColor=none;fillColor=none;align=center;verticalAlign=middle;whiteSpace=wrap;rounded=0;" parent="1" vertex="1">
          <mxGeometry x="300" y="180" width="40" height="20" as="geometry" />
        </mxCell>
        <mxCell id="1VPXngd0XY4O77EjPJEO-50" value="" style="endArrow=classic;html=1;strokeColor=#000000;" parent="1" edge="1">
          <mxGeometry width="50" height="50" relative="1" as="geometry">
            <mxPoint x="357" y="410" as="sourcePoint" />
            <mxPoint x="400" y="410" as="targetPoint" />
          </mxGeometry>
        </mxCell>
        <mxCell id="1VPXngd0XY4O77EjPJEO-51" value="" style="endArrow=classic;html=1;exitX=0.5;exitY=1;exitDx=0;exitDy=0;entryX=0.5;entryY=0;entryDx=0;entryDy=0;" parent="1" source="1VPXngd0XY4O77EjPJEO-16" target="1VPXngd0XY4O77EjPJEO-42" edge="1">
          <mxGeometry width="50" height="50" relative="1" as="geometry">
            <mxPoint x="280" y="390" as="sourcePoint" />
            <mxPoint x="330" y="340" as="targetPoint" />
          </mxGeometry>
        </mxCell>
        <mxCell id="1VPXngd0XY4O77EjPJEO-53" value="&lt;!--StartFragment--&gt;&lt;font face=&quot;Lucida Console&quot;&gt;__proto__&lt;/font&gt;&lt;!--EndFragment--&gt;" style="text;whiteSpace=wrap;html=1;" parent="1" vertex="1">
          <mxGeometry x="525" y="478" width="75" height="30" as="geometry" />
        </mxCell>
        <mxCell id="1VPXngd0XY4O77EjPJEO-61" value="" style="group" parent="1" vertex="1" connectable="0">
          <mxGeometry x="400" y="464" width="95" height="30" as="geometry" />
        </mxCell>
        <mxCell id="1VPXngd0XY4O77EjPJEO-54" value="" style="rounded=0;whiteSpace=wrap;html=1;strokeColor=#000000;" parent="1VPXngd0XY4O77EjPJEO-61" vertex="1">
          <mxGeometry y="2" width="80" height="26" as="geometry" />
        </mxCell>
        <mxCell id="1VPXngd0XY4O77EjPJEO-55" value="" style="rounded=0;whiteSpace=wrap;html=1;strokeColor=#000000;" parent="1VPXngd0XY4O77EjPJEO-61" vertex="1">
          <mxGeometry y="2" width="80" height="26" as="geometry" />
        </mxCell>
        <mxCell id="1VPXngd0XY4O77EjPJEO-56" value="&lt;!--StartFragment--&gt;&lt;font face=&quot;Lucida Console&quot;&gt;__proto__&lt;/font&gt;&lt;!--EndFragment--&gt;" style="text;whiteSpace=wrap;html=1;" parent="1VPXngd0XY4O77EjPJEO-61" vertex="1">
          <mxGeometry x="5" width="90" height="30" as="geometry" />
        </mxCell>
        <mxCell id="1VPXngd0XY4O77EjPJEO-57" value="" style="rounded=0;whiteSpace=wrap;html=1;strokeColor=#000000;" parent="1VPXngd0XY4O77EjPJEO-61" vertex="1">
          <mxGeometry y="2" width="80" height="26" as="geometry" />
        </mxCell>
        <mxCell id="1VPXngd0XY4O77EjPJEO-58" value="" style="rounded=0;whiteSpace=wrap;html=1;strokeColor=#000000;" parent="1VPXngd0XY4O77EjPJEO-61" vertex="1">
          <mxGeometry y="2" width="80" height="26" as="geometry" />
        </mxCell>
        <mxCell id="1VPXngd0XY4O77EjPJEO-59" value="&lt;font face=&quot;Lucida Console&quot;&gt;isAlive&lt;/font&gt;" style="text;whiteSpace=wrap;html=1;align=center;" parent="1VPXngd0XY4O77EjPJEO-61" vertex="1">
          <mxGeometry x="5" width="75" height="30" as="geometry" />
        </mxCell>
        <mxCell id="1VPXngd0XY4O77EjPJEO-62" value="" style="group" parent="1" vertex="1" connectable="0">
          <mxGeometry x="280" y="424" width="95" height="30" as="geometry" />
        </mxCell>
        <mxCell id="1VPXngd0XY4O77EjPJEO-63" value="" style="rounded=0;whiteSpace=wrap;html=1;strokeColor=#000000;" parent="1VPXngd0XY4O77EjPJEO-62" vertex="1">
          <mxGeometry y="2" width="80" height="26" as="geometry" />
        </mxCell>
        <mxCell id="1VPXngd0XY4O77EjPJEO-64" value="" style="rounded=0;whiteSpace=wrap;html=1;strokeColor=#000000;" parent="1VPXngd0XY4O77EjPJEO-62" vertex="1">
          <mxGeometry y="2" width="80" height="26" as="geometry" />
        </mxCell>
        <mxCell id="1VPXngd0XY4O77EjPJEO-65" value="&lt;!--StartFragment--&gt;&lt;font face=&quot;Lucida Console&quot;&gt;__proto__&lt;/font&gt;&lt;!--EndFragment--&gt;" style="text;whiteSpace=wrap;html=1;" parent="1VPXngd0XY4O77EjPJEO-62" vertex="1">
          <mxGeometry x="5" width="90" height="30" as="geometry" />
        </mxCell>
        <mxCell id="1VPXngd0XY4O77EjPJEO-66" value="" style="rounded=0;whiteSpace=wrap;html=1;strokeColor=#000000;" parent="1VPXngd0XY4O77EjPJEO-62" vertex="1">
          <mxGeometry y="2" width="80" height="26" as="geometry" />
        </mxCell>
        <mxCell id="1VPXngd0XY4O77EjPJEO-67" value="" style="rounded=0;whiteSpace=wrap;html=1;strokeColor=#000000;" parent="1VPXngd0XY4O77EjPJEO-62" vertex="1">
          <mxGeometry y="2" width="80" height="26" as="geometry" />
        </mxCell>
        <mxCell id="1VPXngd0XY4O77EjPJEO-68" value="&lt;div align=&quot;center&quot;&gt;&lt;font face=&quot;Lucida Console&quot;&gt;isAnimal&lt;/font&gt;&lt;/div&gt;" style="text;whiteSpace=wrap;html=1;align=center;" parent="1VPXngd0XY4O77EjPJEO-62" vertex="1">
          <mxGeometry x="5" width="75" height="30" as="geometry" />
        </mxCell>
        <mxCell id="1VPXngd0XY4O77EjPJEO-70" value="" style="group" parent="1" vertex="1" connectable="0">
          <mxGeometry x="400" y="490" width="95" height="30" as="geometry" />
        </mxCell>
        <mxCell id="1VPXngd0XY4O77EjPJEO-71" value="" style="rounded=0;whiteSpace=wrap;html=1;strokeColor=#000000;" parent="1VPXngd0XY4O77EjPJEO-70" vertex="1">
          <mxGeometry y="2" width="80" height="26" as="geometry" />
        </mxCell>
        <mxCell id="1VPXngd0XY4O77EjPJEO-72" value="" style="rounded=0;whiteSpace=wrap;html=1;strokeColor=#000000;" parent="1VPXngd0XY4O77EjPJEO-70" vertex="1">
          <mxGeometry y="2" width="80" height="26" as="geometry" />
        </mxCell>
        <mxCell id="1VPXngd0XY4O77EjPJEO-73" value="&lt;!--StartFragment--&gt;&lt;font face=&quot;Lucida Console&quot;&gt;__proto__&lt;/font&gt;&lt;!--EndFragment--&gt;" style="text;whiteSpace=wrap;html=1;" parent="1VPXngd0XY4O77EjPJEO-70" vertex="1">
          <mxGeometry x="5" width="90" height="30" as="geometry" />
        </mxCell>
        <mxCell id="1VPXngd0XY4O77EjPJEO-74" value="" style="rounded=0;whiteSpace=wrap;html=1;strokeColor=#000000;" parent="1VPXngd0XY4O77EjPJEO-70" vertex="1">
          <mxGeometry y="2" width="80" height="26" as="geometry" />
        </mxCell>
        <mxCell id="1VPXngd0XY4O77EjPJEO-75" value="" style="rounded=0;whiteSpace=wrap;html=1;strokeColor=#000000;" parent="1VPXngd0XY4O77EjPJEO-70" vertex="1">
          <mxGeometry y="2" width="80" height="26" as="geometry" />
        </mxCell>
        <mxCell id="1VPXngd0XY4O77EjPJEO-76" value="&lt;font face=&quot;Lucida Console&quot;&gt;position&lt;/font&gt;" style="text;whiteSpace=wrap;html=1;align=center;" parent="1VPXngd0XY4O77EjPJEO-70" vertex="1">
          <mxGeometry x="5" width="75" height="30" as="geometry" />
        </mxCell>
        <mxCell id="1VPXngd0XY4O77EjPJEO-77" value="" style="group" parent="1" vertex="1" connectable="0">
          <mxGeometry x="400" y="516" width="95" height="30" as="geometry" />
        </mxCell>
        <mxCell id="1VPXngd0XY4O77EjPJEO-78" value="" style="rounded=0;whiteSpace=wrap;html=1;strokeColor=#000000;" parent="1VPXngd0XY4O77EjPJEO-77" vertex="1">
          <mxGeometry y="2" width="80" height="26" as="geometry" />
        </mxCell>
        <mxCell id="1VPXngd0XY4O77EjPJEO-79" value="" style="rounded=0;whiteSpace=wrap;html=1;strokeColor=#000000;" parent="1VPXngd0XY4O77EjPJEO-77" vertex="1">
          <mxGeometry y="2" width="80" height="26" as="geometry" />
        </mxCell>
        <mxCell id="1VPXngd0XY4O77EjPJEO-80" value="&lt;!--StartFragment--&gt;&lt;font face=&quot;Lucida Console&quot;&gt;__proto__&lt;/font&gt;&lt;!--EndFragment--&gt;" style="text;whiteSpace=wrap;html=1;" parent="1VPXngd0XY4O77EjPJEO-77" vertex="1">
          <mxGeometry x="5" width="90" height="30" as="geometry" />
        </mxCell>
        <mxCell id="1VPXngd0XY4O77EjPJEO-81" value="" style="rounded=0;whiteSpace=wrap;html=1;strokeColor=#000000;" parent="1VPXngd0XY4O77EjPJEO-77" vertex="1">
          <mxGeometry y="2" width="80" height="26" as="geometry" />
        </mxCell>
        <mxCell id="1VPXngd0XY4O77EjPJEO-82" value="" style="rounded=0;whiteSpace=wrap;html=1;strokeColor=#000000;" parent="1VPXngd0XY4O77EjPJEO-77" vertex="1">
          <mxGeometry y="2" width="80" height="26" as="geometry" />
        </mxCell>
        <mxCell id="1VPXngd0XY4O77EjPJEO-83" value="&lt;font face=&quot;Lucida Console&quot;&gt;move&lt;/font&gt;" style="text;whiteSpace=wrap;html=1;align=center;" parent="1VPXngd0XY4O77EjPJEO-77" vertex="1">
          <mxGeometry width="80" height="30" as="geometry" />
        </mxCell>
      </root>
    </mxGraphModel>
  </diagram>
</mxfile>
